# xmcd CD database file
#
# Track frame offsets:
#	187
#	25570
#	43652
#
# Disc length: 921 seconds
#
# Revision: 0
# Processed by: cddbd v1.5.1PL0 Copyright (c) Steve Scherf et al.
# Submitted via: CDex 1.51
#
DISCID=18039703
DTITLE=THE 虎舞竜 - ロード〜第4章〜
DYEAR=1997
DGENRE=JPop
TTITLE0=ロード〜第4章〜
TTITLE1=君のドラマが始まる
TTITLE2=ロード〜第4章〜(カラオケ)
EXTD=YEAR: 1997
EXTT0=
EXTT1=
EXTT2=
PLAYORDER=
